<?xml version="1.0" standalone="no"?>
<!DOCTYPE svg PUBLIC "-//W3C//DTD SVG 20010904//EN"
 "http://www.w3.org/TR/2001/REC-SVG-20010904/DTD/svg10.dtd">
<svg version="1.0" xmlns="http://www.w3.org/2000/svg"
 width="600.000000pt" height="600.000000pt" viewBox="0 0 600.000000 600.000000"
 preserveAspectRatio="xMidYMid meet">
<metadata>
Created by potrace 1.14, written by Peter Selinger 2001-2017
</metadata>
<g transform="translate(0.000000,600.000000) scale(0.100000,-0.100000)"
fill="#000000" stroke="none">
<path d="M100 4922 c0 -17 10 -20 84 -24 96 -6 138 -26 158 -72 10 -24 13
-172 13 -681 0 -609 -1 -652 -18 -683 -23 -42 -61 -58 -159 -67 -56 -5 -78
-11 -78 -21 0 -12 86 -14 530 -14 464 0 530 2 530 15 0 8 -1 15 -2 15 -2 0
-44 5 -94 9 -94 9 -122 20 -143 53 -19 31 -31 175 -31 394 l0 201 258 6 c177
4 276 11 319 21 214 53 317 193 316 431 0 136 -47 232 -158 322 -61 50 -94 65
-195 89 -66 15 -147 18 -702 21 -614 4 -628 4 -628 -15z m1018 -42 c74 -27
123 -177 123 -376 0 -177 -34 -318 -89 -367 -20 -18 -165 -47 -234 -47 l-28 0
0 406 0 407 98 -6 c53 -3 112 -10 130 -17z"/>
<path d="M1780 4920 c0 -17 7 -20 49 -20 67 0 107 -16 120 -48 8 -19 11 -229
9 -725 -3 -791 5 -719 -88 -731 -34 -5 -50 -11 -50 -21 0 -13 48 -15 340 -15
291 0 340 2 340 15 0 9 -14 16 -37 20 -57 9 -67 18 -75 66 -3 24 -7 198 -7
385 l-1 341 28 54 c35 67 77 92 141 86 104 -11 114 -59 109 -541 -3 -362 -6
-386 -51 -386 -38 0 -67 -12 -67 -26 0 -12 57 -14 340 -14 285 0 340 2 340 14
0 9 -17 16 -49 21 -92 12 -85 -16 -91 407 -5 366 -5 374 -28 421 -59 118 -246
200 -417 182 -83 -9 -175 -55 -216 -108 -18 -23 -35 -45 -38 -49 -3 -4 -5 150
-3 342 l3 350 -301 0 c-293 0 -300 0 -300 -20z"/>
<path d="M478 2772 c-325 -2 -378 -4 -378 -17 0 -17 20 -22 111 -28 76 -5 111
-24 130 -70 21 -48 20 -1307 0 -1355 -19 -45 -58 -62 -154 -70 -63 -5 -82 -10
-82 -22 0 -24 1106 -21 1250 2 137 23 217 50 305 102 166 98 255 212 302 383
31 115 31 352 0 477 -31 125 -91 234 -173 317 -171 170 -327 239 -614 268
-139 14 -262 16 -697 13z m669 -77 c29 -15 66 -43 83 -63 166 -199 222 -738
115 -1107 -36 -123 -73 -193 -124 -232 -55 -42 -95 -53 -223 -60 l-108 -6 0
753 0 753 102 -6 c81 -5 112 -12 155 -32z"/>
<path d="M2520 2220 c-158 -33 -261 -95 -304 -181 -68 -137 4 -239 170 -239
92 0 137 14 185 57 73 66 74 155 4 223 -42 40 -47 81 -13 104 31 22 120 21
147 -1 28 -24 41 -99 41 -244 0 -166 3 -164 -267 -200 -190 -25 -210 -31 -261
-80 -68 -65 -77 -90 -77 -204 0 -112 10 -139 71 -201 63 -62 112 -78 245 -79
113 0 118 1 184 35 51 26 77 47 100 81 l32 47 12 -34 c17 -47 85 -102 150
-121 73 -21 201 -14 256 15 107 55 147 116 161 250 5 51 4 62 -8 62 -12 0 -19
-20 -27 -77 -12 -80 -34 -125 -65 -131 -28 -6 -63 7 -72 25 -5 10 -11 169 -14
353 l-5 335 -28 47 c-82 140 -363 213 -617 158z m219 -881 c-27 -67 -109 -100
-147 -59 -49 52 -46 319 4 397 8 13 41 36 73 53 33 16 63 35 68 42 13 20 15
-402 2 -433z"/>
<path d="M4125 2233 c-100 -22 -165 -69 -198 -141 -11 -24 -12 -20 -17 48 l-5
75 -277 3 c-266 2 -278 2 -278 -16 0 -16 10 -20 52 -25 28 -4 58 -13 66 -21
22 -21 31 -151 31 -431 0 -276 -10 -460 -26 -476 -6 -6 -35 -14 -64 -17 -40
-5 -55 -11 -57 -24 -3 -17 18 -18 338 -18 320 0 341 1 338 18 -2 12 -14 18
-41 20 -70 6 -71 7 -75 417 l-4 363 33 61 c35 68 67 91 123 91 48 0 79 -16
102 -53 18 -30 19 -58 22 -407 2 -206 1 -389 -3 -407 -8 -44 -30 -63 -71 -63
-27 0 -34 -4 -34 -20 0 -20 7 -20 336 -20 313 0 335 1 332 17 -2 13 -17 20
-52 25 -85 12 -80 -10 -86 411 l-5 372 -27 47 c-65 109 -208 179 -363 177 -38
-1 -79 -3 -90 -6z"/>
<path d="M5250 2230 c-229 -36 -420 -213 -459 -425 -22 -118 -5 -251 46 -354
55 -113 191 -218 333 -257 82 -22 237 -29 312 -15 99 19 200 73 271 144 73 72
138 184 116 198 -21 13 -23 12 -47 -40 -57 -125 -152 -199 -267 -209 -202 -16
-316 117 -341 397 l-7 81 333 0 333 0 -5 68 c-14 180 -134 333 -305 391 -72
24 -229 35 -313 21z m172 -50 c39 -30 60 -94 64 -195 3 -49 6 -111 8 -137 l3
-48 -143 0 -144 0 0 54 c0 134 33 281 72 323 28 30 104 32 140 3z"/>
</g>
</svg>
